<svg id="svgexport-10_5_" data-name="svgexport-10 (5)" xmlns="http://www.w3.org/2000/svg" width="56.635" height="56.636" viewBox="0 0 56.635 56.636">
  <path id="Path_36" data-name="Path 36" d="M78.64,31.15V29.262a.944.944,0,0,0,.944-.944V22.654a.944.944,0,0,0-.944-.944h-5.1L73.36,21a17.443,17.443,0,0,0-1.926-4.612l-.378-.632,3.619-3.625a.936.936,0,0,0,0-1.321L70.667,6.8a.958.958,0,0,0-1.322,0l-3.626,3.626-.631-.378A17.483,17.483,0,0,0,60.47,8.118l-.709-.184v-5.1a.944.944,0,0,0-.944-.944H53.154a.944.944,0,0,0-.944.944v5.1l-.709.183a17.479,17.479,0,0,0-4.613,1.924l-.632.378L42.632,6.8a.957.957,0,0,0-1.326,0L37.3,10.8a.937.937,0,0,0,0,1.327l3.626,3.625-.378.632A17.442,17.442,0,0,0,38.619,21l-.185.709h-5.1a.944.944,0,0,0-.944.944v5.664a.944.944,0,0,0,.944.944V31.15A2.832,2.832,0,0,1,30.5,28.318V22.654a2.832,2.832,0,0,1,2.832-2.832h3.652a19.275,19.275,0,0,1,1.571-3.759l-2.6-2.6a2.822,2.822,0,0,1,0-4l4.012-4.012a2.891,2.891,0,0,1,4,0l2.6,2.595a19.278,19.278,0,0,1,3.759-1.569V2.832A2.832,2.832,0,0,1,53.154,0h5.664a2.832,2.832,0,0,1,2.832,2.832V6.485a19.282,19.282,0,0,1,3.759,1.57l2.6-2.6a2.891,2.891,0,0,1,4,0l4.011,4.011a2.824,2.824,0,0,1,0,4l-2.6,2.6a19.349,19.349,0,0,1,1.57,3.761H78.64a2.832,2.832,0,0,1,2.832,2.832v5.664A2.832,2.832,0,0,1,78.64,31.15Zm0,0" transform="translate(-27.668 0)" fill="#fff"/>
  <path id="Path_37" data-name="Path 37" d="M186.93,143.215h-1.888a11.327,11.327,0,0,0-22.654,0H160.5a13.215,13.215,0,0,1,26.43,0Zm0,0" transform="translate(-145.397 -117.729)" fill="#fff"/>
  <path id="Path_38" data-name="Path 38" d="M246.164,241.327a5.664,5.664,0,1,1,5.664-5.664A5.664,5.664,0,0,1,246.164,241.327Zm0-9.439a3.776,3.776,0,1,0,3.776,3.776A3.776,3.776,0,0,0,246.164,231.888Zm0,0" transform="translate(-217.846 -208.29)" fill="#fff"/>
  <path id="Path_39" data-name="Path 39" d="M416.164,281.327a5.664,5.664,0,1,1,5.664-5.664A5.664,5.664,0,0,1,416.164,281.327Zm0-9.439a3.776,3.776,0,1,0,3.776,3.776A3.776,3.776,0,0,0,416.164,271.888Zm0,0" transform="translate(-371.799 -244.514)" fill="#fff"/>
  <path id="Path_40" data-name="Path 40" d="M76.164,281.327a5.664,5.664,0,1,1,5.664-5.664A5.664,5.664,0,0,1,76.164,281.327Zm0-9.439a3.776,3.776,0,1,0,3.776,3.776A3.776,3.776,0,0,0,76.164,271.888Zm0,0" transform="translate(-63.892 -244.514)" fill="#fff"/>
  <path id="Path_41" data-name="Path 41" d="M53.421,365.253a8.4,8.4,0,0,0-4.782-1.478H41.088a8.446,8.446,0,0,0-1.37.124,8.47,8.47,0,0,0-2.312-2.4,3.664,3.664,0,0,0-.435-.283A8.429,8.429,0,0,0,32.593,360H25.042a8.4,8.4,0,0,0-7.123,3.9,8.484,8.484,0,0,0-1.372-.124H9a8.4,8.4,0,0,0-4.779,1.476A8.5,8.5,0,0,0,.5,372.27v3.776a6.613,6.613,0,0,0,3.844,6,6.4,6.4,0,0,0,2.764.61h9.439v-1.888h-8.5V370.382H6.163v10.288a4.428,4.428,0,0,1-1.028-.341,4.727,4.727,0,0,1-2.748-4.283V372.27a6.614,6.614,0,0,1,2.894-5.462A6.529,6.529,0,0,1,9,365.663h7.551c.166,0,.327.018.489.029a8.495,8.495,0,0,0-.489,2.8v9.439a4.726,4.726,0,0,0,4.72,4.72H24.1v-15.1H22.21v13.215h-.944a2.832,2.832,0,0,1-2.832-2.832v-9.439a6.607,6.607,0,0,1,6.607-6.607h7.551a6.6,6.6,0,0,1,3.441.971,2.354,2.354,0,0,1,.275.176,6.687,6.687,0,0,1,2.116,2.36,6.593,6.593,0,0,1,.775,3.1v9.439a2.832,2.832,0,0,1-2.832,2.832h-.944V367.551H33.537v15.1h2.832a4.725,4.725,0,0,0,4.72-4.72v-9.439a8.515,8.515,0,0,0-.488-2.8c.163-.011.323-.029.488-.029H48.64a6.533,6.533,0,0,1,3.716,1.147,6.616,6.616,0,0,1,2.892,5.46v3.776a4.726,4.726,0,0,1-2.764,4.291,4.343,4.343,0,0,1-1.012.334V370.382H49.584v10.383h-8.5v1.888h9.439a6.384,6.384,0,0,0,2.748-.6,6.616,6.616,0,0,0,3.86-6V372.27a8.5,8.5,0,0,0-3.714-7.017Zm0,0" transform="translate(-0.5 -326.018)" fill="#fff"/>
  <path id="Path_42" data-name="Path 42" d="M260.5,580h7.551v1.888H260.5Zm0,0" transform="translate(-235.958 -525.252)" fill="#fff"/>
</svg>
