<svg id="svgexport-10_7_" data-name="svgexport-10 (7)" xmlns="http://www.w3.org/2000/svg" width="67.06" height="67.076" viewBox="0 0 67.06 67.076">
  <g id="Group_82" data-name="Group 82">
    <path id="Path_54" data-name="Path 54" d="M36.14,422.42h-.71a3.6,3.6,0,0,0-3.206-5.238H7.578a3.6,3.6,0,0,0-3.206,5.238h-.71a3.6,3.6,0,0,0,0,7.2H36.14a3.6,3.6,0,0,0,0-7.2Zm0,5.238H3.661a1.637,1.637,0,1,1,0-3.274H9.709a.983.983,0,0,0,0-1.964H7.578a1.637,1.637,0,1,1,0-3.274H32.224a1.637,1.637,0,1,1,0,3.274H14.946a.983.983,0,0,0,0,1.964H36.14a1.637,1.637,0,1,1,0,3.274Z" transform="translate(-0.06 -362.547)" fill="#fff"/>
    <path id="Path_55" data-name="Path 55" d="M182.908,42.235,165.3,24.623a4.647,4.647,0,0,0-.783-5.7l2.068-2.068c2.955,3.253,8.072-1.373,4.885-4.561L164.8,5.635a.983.983,0,0,0-1.389,1.389l6.664,6.664a1.376,1.376,0,0,1-1.944,1.945l-11.3-11.3a1.376,1.376,0,0,1,1.945-1.945l1.059,1.059a.983.983,0,0,0,1.389-1.389L160.169,1c-3.161-3.161-7.838,1.9-4.561,4.885l-14.991,14.99c-2.955-3.248-8.075,1.37-4.885,4.561l11.3,11.3c3.157,3.157,7.843-1.9,4.56-4.885l2.068-2.068a4.642,4.642,0,0,0,5.7.784l17.61,17.61C180.8,52.011,186.742,46.069,182.908,42.235Zm-32.545-6.889a1.376,1.376,0,0,1-1.945,0l-11.3-11.3a1.376,1.376,0,0,1,1.945-1.945l11.3,11.3A1.387,1.387,0,0,1,150.364,35.346Zm-.162-4.885-8.195-8.2L157,7.276l8.195,8.195Zm8.653-1.978a2.692,2.692,0,0,1-3.8-.086l8.077-8.077a2.685,2.685,0,0,1,.086,3.8Zm22.665,18.3a2.257,2.257,0,0,1-3.164,0L160.841,29.274l3.164-3.164,17.514,17.514A2.257,2.257,0,0,1,181.519,46.788Z" transform="translate(-117.087 0)" fill="#fff"/>
    <path id="Path_56" data-name="Path 56" d="M50.771,345.065l5.7,3.854a.983.983,0,0,0,1.1-1.627l-5.7-3.854A.983.983,0,0,0,50.771,345.065Z" transform="translate(-43.76 -298.308)" fill="#fff"/>
    <path id="Path_57" data-name="Path 57" d="M197.4,349.088a.978.978,0,0,0,.549-.169l5.7-3.854a.983.983,0,0,0-1.1-1.627l-5.7,3.854A.99.99,0,0,0,197.4,349.088Z" transform="translate(-170.713 -298.308)" fill="#fff"/>
    <path id="Path_58" data-name="Path 58" d="M147.044,297.91v-6.549a.983.983,0,0,0-1.964,0v6.549A.983.983,0,0,0,147.044,297.91Z" transform="translate(-126.088 -252.377)" fill="#fff"/>
  </g>
</svg>
