<svg id="svgexport-10_6_" data-name="svgexport-10 (6)" xmlns="http://www.w3.org/2000/svg" width="52.899" height="53.953" viewBox="0 0 52.899 53.953">
  <path id="Path_43" data-name="Path 43" d="M119.5,132.669h22.538a1.063,1.063,0,0,0,0-2.125H119.5a1.063,1.063,0,1,0,0,2.125Z" transform="translate(-106.486 -116.788)" fill="#fff"/>
  <path id="Path_44" data-name="Path 44" d="M271.04,180.9H263.7a1.063,1.063,0,1,0,0,2.125h7.344a1.063,1.063,0,1,0,0-2.125Z" transform="translate(-235.485 -161.836)" fill="#fff"/>
  <path id="Path_45" data-name="Path 45" d="M119.5,183.023h7.77a1.063,1.063,0,1,0,0-2.125H119.5a1.063,1.063,0,1,0,0,2.125Z" transform="translate(-106.486 -161.836)" fill="#fff"/>
  <path id="Path_46" data-name="Path 46" d="M119.5,233.376h22.538a1.063,1.063,0,0,0,0-2.125H119.5a1.063,1.063,0,0,0,0,2.125Z" transform="translate(-106.486 -206.883)" fill="#fff"/>
  <path id="Path_47" data-name="Path 47" d="M119.5,283.729h2.122a1.063,1.063,0,0,0,0-2.125H119.5a1.063,1.063,0,1,0,0,2.125Z" transform="translate(-106.486 -251.93)" fill="#fff"/>
  <path id="Path_48" data-name="Path 48" d="M198.692,281.6h-8.707a1.063,1.063,0,1,0,0,2.125h8.707a1.063,1.063,0,1,0,0-2.125Z" transform="translate(-169.541 -251.93)" fill="#fff"/>
  <path id="Path_49" data-name="Path 49" d="M133.54,333.021a1.063,1.063,0,0,0-1.063-1.063H119.5a1.063,1.063,0,1,0,0,2.125h12.975A1.063,1.063,0,0,0,133.54,333.021Z" transform="translate(-106.486 -296.977)" fill="#fff"/>
  <path id="Path_50" data-name="Path 50" d="M119.5,82.288H132.5a1.063,1.063,0,1,0,0-2.125H119.5a1.063,1.063,0,1,0,0,2.125Z" transform="translate(-106.486 -71.716)" fill="#fff"/>
  <path id="Path_51" data-name="Path 51" d="M55.969,33.253,48.091,29V10.259a1.06,1.06,0,0,0-.006-.113c0-.008,0-.016,0-.024,0-.03-.008-.059-.014-.088,0-.009,0-.017-.007-.026-.007-.027-.014-.054-.023-.081,0-.01-.007-.019-.011-.029-.009-.025-.018-.049-.029-.073l-.015-.032c-.011-.022-.022-.044-.034-.065l-.021-.034q-.018-.029-.038-.057L47.864,9.6c-.014-.018-.028-.035-.043-.051l-.029-.032c-.017-.017-.035-.034-.053-.05l-.021-.02L36.925.254,36.918.249,36.883.221,36.84.19,36.8.163,36.758.138,36.712.114l-.041-.02L36.622.074,36.58.058,36.529.042,36.483.03,36.434.019,36.377.011,36.336.005C36.3,0,36.269,0,36.235,0H14.094A3.62,3.62,0,0,0,10.48,3.619V5.766H8.615A3.622,3.622,0,0,0,5,9.385v40.95a3.622,3.622,0,0,0,3.617,3.619H47.028a1.077,1.077,0,0,0,.124-.008,3.563,3.563,0,0,0,1.573-.6,18.711,18.711,0,0,0,6.6-7.472A20.293,20.293,0,0,0,57.9,36.222c-.017-1.851-.673-2.291-1.928-2.968ZM37.3,3.364,44.143,9.2H39.372A2.075,2.075,0,0,1,37.3,7.124ZM7.123,50.334V9.385A1.494,1.494,0,0,1,8.615,7.891H10.48V44.565a3.621,3.621,0,0,0,3.614,3.619h5.273a1.063,1.063,0,1,0,0-2.125H14.094a1.493,1.493,0,0,1-1.489-1.493V3.619a1.493,1.493,0,0,1,1.489-1.493H35.173v5a4.2,4.2,0,0,0,4.2,4.2h6.594V29l-7.844,4.234-.031.017c-1.259.678-1.916,1.117-1.933,2.97a20.293,20.293,0,0,0,2.576,9.652c.034.063.068.123.1.185H28.823a1.063,1.063,0,1,0,0,2.125h11.3a18.939,18.939,0,0,0,3.145,3.643H8.615a1.494,1.494,0,0,1-1.492-1.493ZM53.447,44.87a16.654,16.654,0,0,1-5.813,6.652,2.328,2.328,0,0,1-.6.306h0a2.221,2.221,0,0,1-.609-.306h0a16.889,16.889,0,0,1-5.812-6.652,18.171,18.171,0,0,1-2.324-8.628c.005-.567.071-.661.074-.665a3.936,3.936,0,0,1,.741-.452l7.931-4.281,7.9,4.263.032.017a3.932,3.932,0,0,1,.738.452s.069.1.074.666A18.171,18.171,0,0,1,53.447,44.87Z" transform="translate(-4.998 0)" fill="#fff"/>
  <path id="Path_52" data-name="Path 52" d="M177.188,437.085h-.006a1.066,1.066,0,1,0,.006,0Z" transform="translate(-158.09 -391.027)" fill="#fff"/>
  <path id="Path_53" data-name="Path 53" d="M369.491,356.2l-3.7,3.8-1.376-1.29a1.063,1.063,0,1,0-1.454,1.55l2.136,2a1.063,1.063,0,0,0,1.488-.034l4.428-4.548a1.063,1.063,0,1,0-1.523-1.483Z" transform="translate(-324.939 -318.373)" fill="#fff"/>
</svg>
